<?xml version="1.0" standalone="no"?>
<!DOCTYPE svg PUBLIC "-//W3C//DTD SVG 20010904//EN"
 "http://www.w3.org/TR/2001/REC-SVG-20010904/DTD/svg10.dtd">
<svg version="1.0" xmlns="http://www.w3.org/2000/svg"
 width="546.000000pt" height="546.000000pt" viewBox="0 0 546.000000 546.000000"
 preserveAspectRatio="xMidYMid meet">
<metadata>
Created by potrace 1.14, written by Peter Selinger 2001-2017
</metadata>
<g transform="translate(0.000000,546.000000) scale(0.100000,-0.100000)"
fill="#000000" stroke="none">
<path d="M2690 5441 c-5 -11 -16 -25 -23 -33 -7 -7 -35 -42 -62 -78 -28 -36
-53 -67 -56 -70 -3 -3 -44 -54 -92 -115 -48 -60 -98 -123 -112 -140 -13 -16
-54 -68 -90 -115 -36 -47 -70 -86 -76 -88 -5 -2 -9 -8 -9 -13 0 -6 -13 -24
-30 -42 -16 -18 -30 -35 -30 -39 0 -4 -6 -13 -12 -20 -13 -14 -85 -101 -104
-127 -10 -12 -30 3 -122 95 -164 162 -169 166 -196 169 -18 2 -32 -5 -46 -22
-20 -25 -20 -40 -20 -874 l0 -849 -91 72 c-50 40 -98 78 -107 83 -9 6 -19 13
-22 17 -3 3 -45 38 -95 77 -49 40 -97 77 -105 84 -8 7 -34 27 -57 45 l-42 33
-73 -58 c-39 -32 -83 -68 -97 -81 -13 -12 -46 -39 -73 -59 -26 -21 -48 -41
-48 -45 0 -4 -6 -8 -14 -8 -8 0 -16 -4 -18 -9 -1 -4 -57 -53 -124 -107 -66
-55 -142 -117 -168 -139 -27 -22 -78 -65 -115 -95 -36 -30 -68 -58 -69 -62 -2
-5 -8 -8 -13 -8 -5 0 -17 -8 -27 -17 -10 -10 -30 -27 -43 -38 -13 -11 -39 -32
-56 -47 l-32 -26 35 -29 c20 -15 44 -35 55 -43 10 -8 32 -26 50 -40 54 -41
443 -350 464 -368 11 -10 38 -31 60 -47 22 -16 42 -32 45 -35 3 -3 25 -21 50
-40 25 -19 47 -37 50 -40 3 -3 49 -41 103 -83 l99 -77 51 42 c29 23 68 56 87
73 20 16 53 44 74 60 22 17 46 37 55 46 9 8 39 33 66 55 28 21 57 47 66 56 9
10 19 18 23 18 3 0 16 10 28 22 l23 23 5 -843 5 -844 22 -18 c14 -11 32 -16
45 -13 13 3 87 69 166 147 l143 141 22 -25 c12 -14 38 -45 57 -69 19 -23 44
-53 55 -65 11 -12 35 -41 53 -64 19 -22 41 -50 50 -60 10 -11 31 -37 47 -58
17 -20 35 -42 40 -48 6 -6 30 -36 55 -66 24 -30 51 -63 60 -72 8 -9 20 -23 25
-30 6 -7 46 -56 89 -108 167 -201 159 -193 169 -174 5 9 17 24 26 33 28 30 61
71 61 76 0 3 8 13 18 23 9 10 31 36 47 57 28 37 111 142 138 175 7 8 64 80
127 160 63 80 119 150 125 156 5 7 39 50 75 97 36 47 69 86 73 86 4 1 73 -64
153 -144 79 -79 153 -149 164 -155 21 -11 59 -1 77 21 8 10 11 262 11 859 1
465 1 851 1 857 1 9 9 6 24 -6 34 -29 115 -93 322 -256 105 -82 192 -152 193
-157 8 -18 35 -5 104 52 40 34 80 66 88 73 42 34 196 162 200 167 3 3 28 23
55 45 28 21 59 47 70 57 27 23 98 82 180 148 37 30 77 63 89 73 11 11 38 33
60 50 83 68 134 112 137 120 2 4 -39 41 -91 83 -52 41 -102 80 -110 87 -8 7
-28 22 -45 35 -16 13 -43 34 -60 47 -16 14 -88 71 -160 127 -71 56 -135 107
-142 113 -6 5 -26 21 -44 35 -18 14 -82 64 -143 113 -61 48 -121 95 -134 105
-13 9 -31 25 -40 35 -24 25 -34 22 -99 -31 -236 -195 -359 -297 -363 -302 -11
-12 -80 -61 -86 -60 -4 0 -7 387 -7 861 1 858 1 860 -20 880 -42 39 -64 28
-202 -111 -71 -71 -132 -130 -136 -130 -3 0 -46 48 -95 108 -48 59 -93 112
-99 118 -5 6 -21 26 -35 44 -14 18 -33 42 -43 54 -11 11 -33 38 -50 60 -18 21
-37 43 -42 50 -6 6 -30 36 -55 66 -25 30 -49 60 -55 66 -5 6 -68 81 -139 167
-71 87 -130 157 -132 157 -2 0 -8 -9 -14 -19z m345 -1997 c-2 -19 -49 -73
-165 -189 l-163 -164 -159 159 c-109 108 -160 167 -164 186 -5 26 4 39 87 122
l93 94 33 -39 c19 -21 48 -57 66 -80 18 -23 37 -42 42 -43 6 0 41 39 78 86
l68 85 94 -95 c76 -78 93 -100 90 -122z m-817 -567 c94 -95 172 -176 172 -181
0 -5 -81 -90 -179 -188 -148 -147 -185 -178 -208 -178 -22 0 -44 16 -98 70
-60 60 -67 72 -55 83 8 8 56 47 105 88 50 40 92 76 95 79 3 3 15 13 28 22 19
13 21 18 10 27 -7 6 -25 21 -39 34 -14 12 -40 33 -59 47 -72 54 -155 122 -158
129 -4 12 134 149 155 153 10 3 27 0 38 -5 11 -5 98 -86 193 -180z m1315 102
l82 -81 -31 -27 c-16 -14 -48 -41 -70 -58 -22 -18 -56 -46 -75 -62 -19 -16
-44 -37 -57 -48 l-23 -18 98 -77 c54 -42 108 -85 120 -97 l21 -20 -75 -76
c-43 -43 -86 -77 -101 -80 -22 -4 -50 20 -209 177 -101 100 -183 186 -183 191
0 4 82 89 182 189 216 214 199 210 321 87z m-665 -828 c147 -146 170 -173 166
-198 -1 -7 -2 -17 -3 -22 0 -5 -36 -44 -78 -86 l-78 -77 -18 24 c-10 13 -36
43 -57 68 -21 25 -52 62 -68 82 l-30 38 -28 -34 c-16 -19 -54 -66 -84 -106
l-55 -71 -79 80 c-70 72 -78 84 -72 108 5 18 66 87 164 186 86 86 160 157 164
157 4 0 74 -67 156 -149z"/>
</g>
</svg>
